<?xml version="1.0" ?><svg viewBox="0 0 1000 1000" xmlns="http://www.w3.org/2000/svg"><path d="m707.9 367c-12.19 2.59-16.32 16.58-19.11 27a136.06 136.06 0 0 0 -3.67 19.53c-.74 6.43-.84 12.88-1.18 19.33-.37 7.05-1.18 14.13-3.94 20.69a1.13 1.13 0 0 0 .51 1.26 2.94 2.94 0 0 0 3.67-.22c1.07-1 1-2.61-.63-3s-3.28 1.15-4.51 2q-2.64 1.84-5.21 3.8c-6.16 4.69-12 9.83-18 14.71-3.8 3.07-7.7 6-11.74 8.74-1.21.82-.06 2.8 1.15 2a233.67 233.67 0 0 0 19-14.77c2.92-2.46 5.85-4.92 8.85-7.27q2.52-2 5.13-3.88c.9-.65 1.8-1.29 2.72-1.92.4-.28.79-.58 1.21-.83s.87-.27.7-.51v-1.13a.73.73 0 0 1 -1.24.33l.51 1.26c4.75-11.33 3.73-23.87 4.68-35.85a135.31 135.31 0 0 1 2.87-19.09 96.17 96.17 0 0 1 5.4-17.9c2.57-5.8 6.78-11.28 13.14-13.08a.64.64 0 0 0 -.34-1.24z"/><g fill="#18c4ff"><path d="m763.88 569.49a301.14 301.14 0 0 0 30.69 60.51c10.42 15.83 25 32.06 43.94 32.25 13.39.14 25.37-7.92 35.84-16.26a343.6 343.6 0 0 0 73.73-81.15c5.26-8.1 11.45-17.27 21-18.49a10.58 10.58 0 0 0 3.93-.87c4-2.3 1.21-8.42-2-11.68a141 141 0 0 0 -13.89-12.31c-2.17-1.68-4.51-3.35-7.23-3.71-6.49-.88-11.27 5.56-15.31 10.71-21.07 26.89-58.48 34.56-84.82 56.31-4-29-18.15-55.43-32-81.19l-26.76 26.51c-3.26 3.24-11.23 7.78-8.67 11.6 4.2 6.27 1.06 11.34-.55 16.82s-4.21 12.47-10.07 12.3"/><path d="m763.22 569.68a292.15 292.15 0 0 0 22.68 48.11c7.83 13.36 16.49 27.2 29 36.7a41.44 41.44 0 0 0 19.24 8.51c7.81 1.08 15.53-.74 22.58-4.1 7.5-3.58 14.14-8.7 20.57-13.9s12.88-10.84 19-16.6a343.74 343.74 0 0 0 34.25-37.4q7.79-9.84 14.83-20.22c4.17-6.16 7.88-12.94 13.38-18.06a20.06 20.06 0 0 1 8.87-5.07c3.09-.74 7.08-.36 8.2-4.12.85-2.87-.7-6.11-2.33-8.39-2.34-3.27-5.67-6-8.66-8.64a73.61 73.61 0 0 0 -10.06-8 10.85 10.85 0 0 0 -9.95-1.11c-3.24 1.33-5.77 3.92-8 6.55s-4.39 5.6-6.82 8.22c-9.69 10.49-22.1 17.85-34.6 24.46-12.82 6.79-26.06 12.9-38.07 21.09-2.88 2-5.67 4-8.36 6.27l1.84.49c-3.21-22.73-12.55-44-23-64.21-3-5.78-6.06-11.52-9.14-17.25a1.12 1.12 0 0 0 -1.74-.22l-15.86 15.69c-4.58 4.54-9 9.4-14 13.46-2.63 2.11-8 5.85-6 9.89a21.86 21.86 0 0 1 1.81 3.7 10.48 10.48 0 0 1 .22 4.56c-.43 2.67-1.56 5.18-2.35 7.76-1.35 4.43-3.27 11.91-9.11 11.85a1.1 1.1 0 0 0 0 2.19c5.13 0 8-4.45 9.65-8.71 1-2.47 1.66-5.06 2.53-7.57s1.8-5.33 1.62-8.12a12 12 0 0 0 -.93-4 23 23 0 0 0 -1.29-2.4 1.94 1.94 0 0 1 -.34-1.12c.07-1.94 2.41-3.7 3.74-4.84 1.81-1.56 3.75-3 5.45-4.64 2.71-2.67 5.4-5.35 8.1-8l18.32-18.13-1.74-.23c10.77 20 21.65 40.26 27.9 62.23a138.43 138.43 0 0 1 4 18.69c.13.91 1.29.95 1.85.49 10.84-8.92 23.41-15.39 35.84-21.76s24.71-12.6 35.56-21.23a86.68 86.68 0 0 0 14.3-14.48c2.14-2.74 4.38-5.65 7.3-7.6a8.83 8.83 0 0 1 9.82-.36c3.62 2.09 6.87 5.09 10 7.85q2.45 2.14 4.77 4.41a27.41 27.41 0 0 1 3.76 4.08c1.33 1.94 3.53 6.1.89 7.93-1.48 1-3.64.79-5.35 1.16a18.45 18.45 0 0 0 -4.51 1.64c-6 3.06-10.24 8.85-13.91 14.33-4.45 6.65-8.85 13.31-13.61 19.74a342.63 342.63 0 0 1 -32 37.24q-8.58 8.65-17.76 16.68a232.1 232.1 0 0 1 -19 15.29c-6.51 4.58-13.67 8.61-21.57 10.13a34.06 34.06 0 0 1 -21.03-2.87c-13.25-6.36-22.58-18.84-30.36-30.88a300.06 300.06 0 0 1 -24.26-45.7c-1.66-3.92-3.29-7.85-4.81-11.83-.31-.81-1.62-.47-1.32.37z"/><path d="m742.76 490.25c-6.65.71-13.48 1.06-20-.4-5.7 10.29-14.57 18.71-23.38 26.65-31.7 28.57-66.44 56.55-83.28 95.76-6.24 14.51-9.74 30-13.21 45.42-7.37 32.74-9.22 77.36-16.59 110.1-3.07 13.6-10.85 19.2-21.07 27a4.17 4.17 0 0 0 1.88 7.45 29.79 29.79 0 0 0 4.2.19l21.48-.28c6.75-.08 19.15.1 25.72.21a6.2 6.2 0 0 0 6.27-5.24c1.14-7.8-1.41-19.66-.68-25.69 2-16.71 11.32-31.5 19.54-46.19a436.51 436.51 0 0 0 39.36-95.13c.74-2.65 1.49-5.37 3.14-7.56 1.82-2.42 4.54-4 7.18-5.42l50.36-28c2.8-1.56 5.68-3.18 7.58-5.75s2.62-5.78 3.3-8.9c2.21-10.26 4.21-21.87-2.4-30.34a15.52 15.52 0 0 1 -2.81-5.31c-.74-2.73-.66-3.31.63-5.91.87-1.75 11-9.08 11.9-10.81 1.29-2.47-5.62-.55-2.54-7.43 4-8.88 13.13-10.35 22.1-28.71a9.25 9.25 0 0 0 .73-4.07 198.51 198.51 0 0 1 -39.41 8.36z"/><path d="m575.54 371.58a135.82 135.82 0 0 0 -4.09-33.11l34.18-27.88-30-52-41.29 15.67a135.31 135.31 0 0 0 -57.34-33.1l-7-43.56h-60l-7.07 43.56a135.43 135.43 0 0 0 -57.29 33.1l-41.28-15.67-30 52 34.17 27.88a136 136 0 0 0 0 66.21l-34.17 27.89 30 52 41.28-15.68a135.43 135.43 0 0 0 57.22 33.11l7.07 43.57h60l7.07-43.57a135.31 135.31 0 0 0 57.29-33.1l41.29 15.68 30-52-34.18-27.89a135.73 135.73 0 0 0 4.14-33.11z"/><path d="m577.41 371.58a140.54 140.54 0 0 0 -4.15-33.58l-.48 1.82 29.94-24.43 4.23-3.45a1.89 1.89 0 0 0 .3-2.27l-10.14-17.55-16.16-28-3.72-6.45a1.9 1.9 0 0 0 -2.12-.86l-36.17 13.74-5.12 1.94 1.83.48a138.77 138.77 0 0 0 -58.12-33.58l1.31 1.3-6.19-38.17-.87-5.39a1.89 1.89 0 0 0 -1.81-1.38h-60a1.9 1.9 0 0 0 -1.81 1.38l-6.19 38.17-.87 5.39 1.31-1.3a138.66 138.66 0 0 0 -58.12 33.58l1.82-.48-36.21-13.77-5.11-1.94a1.88 1.88 0 0 0 -2.12.86l-10.13 17.56-16.17 28-3.72 6.44a1.9 1.9 0 0 0 .29 2.27l29.95 24.43 4.23 3.45-.48-1.82a139.44 139.44 0 0 0 0 67.21l.48-1.82-29.95 24.43-4.23 3.45a1.89 1.89 0 0 0 -.29 2.27l10.14 17.56 16.16 28 3.72 6.44a1.89 1.89 0 0 0 2.12.86l36.21-13.73 5.11-1.94-1.82-.48a138.77 138.77 0 0 0 58.12 33.58l-1.31-1.31 6.19 38.17.87 5.4a1.89 1.89 0 0 0 1.81 1.37h60a1.9 1.9 0 0 0 1.81-1.37l6.22-38.18.88-5.39-1.31 1.31a138.77 138.77 0 0 0 58.12-33.58l-1.83.48 36.14 13.73 5.11 1.94a1.89 1.89 0 0 0 2.12-.86l10.13-17.51 16.17-28 3.72-6.45a1.89 1.89 0 0 0 -.3-2.27l-29.95-24.47-4.23-3.45.48 1.82a140.46 140.46 0 0 0 4.15-33.6 1.87 1.87 0 0 0 -3.74 0 136.9 136.9 0 0 1 -4 32.61 1.85 1.85 0 0 0 .48 1.82l30 24.43 4.23 3.45-.29-2.27-10.14 17.56-16.16 28-3.78 6.44 2.12-.86-36.19-13.76-5.11-1.94a1.84 1.84 0 0 0 -1.82.48 134.8 134.8 0 0 1 -56.46 32.62 1.83 1.83 0 0 0 -1.31 1.31l-6.23 38.2-.87 5.39 1.8-1.37h-60l1.8 1.37-6.19-38.17-.87-5.39a1.83 1.83 0 0 0 -1.31-1.31 134.8 134.8 0 0 1 -56.46-32.62 1.84 1.84 0 0 0 -1.82-.48l-36.18 13.73-5.11 1.94 2.11.86-10.13-17.55-16.17-28-3.72-6.45-.29 2.27 30-24.43 4.23-3.45a1.85 1.85 0 0 0 .48-1.82 135.25 135.25 0 0 1 0-65.22 1.85 1.85 0 0 0 -.48-1.82l-29.95-24.43-4.23-3.46.29 2.27 10.07-17.53 16.16-28 3.72-6.45-2.11.86 36.23 13.72 5.11 1.94a1.87 1.87 0 0 0 1.82-.48 134.72 134.72 0 0 1 56.43-32.59 1.82 1.82 0 0 0 1.31-1.3l6.19-38.17.87-5.4-1.8 1.38h60l-1.8-1.38 6.18 38.17.88 5.4a1.82 1.82 0 0 0 1.31 1.3 134.72 134.72 0 0 1 56.5 32.59 1.86 1.86 0 0 0 1.82.48l36.18-13.74 5.11-1.94-2.12-.86 10.14 17.56 16.16 28 3.73 6.45.29-2.27-29.95 24.43-4.23 3.45a1.85 1.85 0 0 0 -.48 1.82 136.77 136.77 0 0 1 4 32.61c.03 2.42 3.77 2.42 3.76 0z"/></g><circle cx="439.95" cy="371.58" fill="#fff" r="49.61"/><path d="m487.68 371.58a47.54 47.54 0 1 1 -.56-7.45 48.88 48.88 0 0 1 .56 7.45 1.88 1.88 0 0 0 3.75 0 51.56 51.56 0 1 0 -.65 8.1 55 55 0 0 0 .65-8.1 1.88 1.88 0 0 0 -3.75 0z" fill="#18c4ff"/><path d="m210.67 338a93.14 93.14 0 0 0 -18-14l3-30-39.57-10.68-12.37 27.53a92.53 92.53 0 0 0 -43.68 11.69l-24.46-17.64-29 29 17.64 24.46a92.56 92.56 0 0 0 -11.69 43.68l-27.54 12.39 10.62 39.63 30-3a93 93 0 0 0 32 32l-3 30 39.63 10.62 12.38-27.52a92.53 92.53 0 0 0 43.68-11.69l24.46 17.64 29-29-17.63-24.46a92.48 92.48 0 0 0 11.68-43.68l27.53-12.37-10.62-39.63-30 3a92.9 92.9 0 0 0 -14.06-17.97z"/><path d="m212 336.63a96.66 96.66 0 0 0 -18.35-14.31l.93 1.61 2.66-26.24.38-3.75a1.88 1.88 0 0 0 -1.38-1.8l-34.77-9.32-4.86-1.3a1.87 1.87 0 0 0 -2.11.86l-10.86 24.12-1.53 3.4 1.62-.92a95.51 95.51 0 0 0 -44.62 11.94h1.89l-21.41-15.43-3.06-2.21a1.89 1.89 0 0 0 -2.27.29l-25.46 25.43-3.55 3.56a1.89 1.89 0 0 0 -.29 2.27l15.43 21.4 2.21 3.06v-1.89a95.55 95.55 0 0 0 -12 44.62l.93-1.61-24.07 10.87-3.4 1.53a1.89 1.89 0 0 0 -.86 2.12l9.31 34.77 1.3 4.86a1.89 1.89 0 0 0 1.81 1.37l26.24-2.66 3.75-.38-1.61-.89a96 96 0 0 0 32.67 32.67l-.94-1.67-2.66 26.25-.38 3.75a1.89 1.89 0 0 0 1.37 1.81l34.78 9.32 4.86 1.3a1.91 1.91 0 0 0 2.11-.86l10.85-24.12 1.53-3.41-1.62.93a95.62 95.62 0 0 0 44.62-11.97h-1.89l21.41 15.43 3.06 2.2a1.86 1.86 0 0 0 2.26-.29l25.46-25.46 3.56-3.55a1.89 1.89 0 0 0 .29-2.27l-15.43-21.41-2.21-3.05v1.89a95.46 95.46 0 0 0 11.94-44.63l-.92 1.62 24.12-10.84 3.4-1.54a1.87 1.87 0 0 0 .86-2.11l-9.32-34.78-1.3-4.85a1.88 1.88 0 0 0 -1.8-1.38l-26.24 2.67-3.75.38 1.62.92a97.11 97.11 0 0 0 -14.31-18.32c-1.7-1.71-4.35.94-2.65 2.65a92 92 0 0 1 13.73 17.59 1.88 1.88 0 0 0 1.62.93l26.24-2.66 3.75-.38-1.81-1.38 9.32 34.78 1.3 4.86.86-2.12-24.12 10.85-3.4 1.53a1.84 1.84 0 0 0 -.93 1.61 91.49 91.49 0 0 1 -11.43 42.74 1.86 1.86 0 0 0 0 1.89l15.43 21.4 2.21 3.06.29-2.27-25.46 25.46-3.55 3.55 2.26-.29-21.41-15.43-3.06-2.21a1.88 1.88 0 0 0 -1.89 0 91.5 91.5 0 0 1 -42.73 11.44 1.85 1.85 0 0 0 -1.62.92l-10.84 24.12-1.53 3.41 2.11-.86-34.78-9.32-4.85-1.3 1.37 1.8 2.66-26.24.38-3.75a1.82 1.82 0 0 0 -.92-1.61 92 92 0 0 1 -31.33-31.33 1.82 1.82 0 0 0 -1.61-.92l-26.24 2.66-3.75.38 1.8 1.37-9.31-34.78-1.31-4.85-.86 2.07 24.12-10.8 3.41-1.53a1.86 1.86 0 0 0 .93-1.62 91.37 91.37 0 0 1 11.43-42.73 1.86 1.86 0 0 0 0-1.89l-15.44-21.43-2.2-3-.29 2.27 25.46-25.46 3.55-3.56-2.27.29 21.41 15.46 3.06 2.2a1.85 1.85 0 0 0 1.89 0 91.49 91.49 0 0 1 42.73-11.43 1.83 1.83 0 0 0 1.61-.93l10.85-24.12 1.53-3.4-2.11.86 34.77 9.32 4.86 1.3-1.37-1.81-2.67 26.25-.38 3.74a1.87 1.87 0 0 0 .93 1.62 92.42 92.42 0 0 1 17.59 13.73c1.71 1.67 4.36-1 2.66-2.7z"/><circle cx="145.15" cy="403.47" fill="#18c4ff" r="33.9"/><path d="m167.79 380.83a31.89 31.89 0 1 1 -3.76-3.24 31.33 31.33 0 0 1 3.76 3.24c1.72 1.69 4.37-.95 2.65-2.65a35.76 35.76 0 1 0 3.62 4.23 39.41 39.41 0 0 0 -3.62-4.23c-1.7-1.71-4.34.93-2.65 2.65z"/><path d="m299.2 523a65.08 65.08 0 0 0 -15.84 1.95l-13.36-16.38-24.86 14.36 7.49 19.74a64.84 64.84 0 0 0 -15.83 27.39l-20.8 3.38v28.71l20.83 3.38a64.84 64.84 0 0 0 15.83 27.39l-7.49 19.75 24.83 14.33 13.33-16.34a65.27 65.27 0 0 0 31.67 0l13.36 16.34 24.87-14.35-7.5-19.75a64.84 64.84 0 0 0 15.83-27.39l20.83-3.38v-28.69l-20.83-3.38a64.84 64.84 0 0 0 -15.83-27.39l7.5-19.74-24.87-14.36-13.36 16.34a65.06 65.06 0 0 0 -15.8-1.91z" fill="#fff"/><path d="m299.2 521.09a69.08 69.08 0 0 0 -16.33 2l1.82.48-13.34-16.34a1.87 1.87 0 0 0 -2.26-.3l-21.8 12.59-3.07 1.77a1.88 1.88 0 0 0 -.86 2.11l7.5 19.75.48-1.83a67.57 67.57 0 0 0 -16.34 28.25l1.31-1.31-20.84 3.38a1.87 1.87 0 0 0 -1.37 1.8v28.71a1.9 1.9 0 0 0 1.4 1.85l20.84 3.37-1.34-1.37a67.6 67.6 0 0 0 16.31 28.22l-.48-1.82-7.5 19.74a1.87 1.87 0 0 0 .86 2.11l21.81 12.61 3.08 1.78a1.89 1.89 0 0 0 2.26-.29l13.35-16.35-1.82.48a68 68 0 0 0 32.65 0l-1.82-.48 13.3 16.35a1.89 1.89 0 0 0 2.26.29l21.8-12.58 3.07-1.78a1.88 1.88 0 0 0 .86-2.11l-7.5-19.74-.48 1.82a67.6 67.6 0 0 0 16.35-28.25l-1.3 1.3 20.83-3.3a1.88 1.88 0 0 0 1.37-1.81v-28.75a1.87 1.87 0 0 0 -1.37-1.8l-20.83-3.38 1.3 1.31a67.57 67.57 0 0 0 -16.31-28.23l.48 1.83 7.5-19.75a1.88 1.88 0 0 0 -.86-2.11l-21.79-12.58-3.08-1.73a1.88 1.88 0 0 0 -2.26.3l-13.34 16.29 1.82-.48a69.07 69.07 0 0 0 -16.32-2 1.87 1.87 0 0 0 0 3.74 64.41 64.41 0 0 1 15.33 1.89 1.85 1.85 0 0 0 1.82-.48l13.33-16.35-2.26.3 21.79 12.58 3.07 1.77-.86-2.11-7.5 19.74a1.84 1.84 0 0 0 .49 1.82 63.69 63.69 0 0 1 15.34 26.57 1.85 1.85 0 0 0 1.31 1.31l20.83 3.37-1.37-1.8v28.71l1.37-1.8-20.83 3.37a1.88 1.88 0 0 0 -1.31 1.31 63.69 63.69 0 0 1 -15.34 26.57 1.84 1.84 0 0 0 -.49 1.82l7.5 19.74.86-2.11-21.79 12.58-3.07 1.78 2.26.29-13.33-16.34a1.86 1.86 0 0 0 -1.82-.49 63.9 63.9 0 0 1 -30.67 0 1.86 1.86 0 0 0 -1.82.49l-13.33 16.32 2.27-.29-21.8-12.59-3.07-1.77.86 2.11 7.5-19.74a1.86 1.86 0 0 0 -.48-1.82 63.6 63.6 0 0 1 -15.35-26.6 1.88 1.88 0 0 0 -1.31-1.31l-20.83-3.37 1.37 1.8v-28.68l-1.37 1.8 20.83-3.37a1.85 1.85 0 0 0 1.31-1.31 63.6 63.6 0 0 1 15.36-26.56 1.86 1.86 0 0 0 .48-1.82l-7.48-19.75-.86 2.11 21.76-12.54 3.08-1.77-2.27-.3 13.29 16.31a1.85 1.85 0 0 0 1.82.48 64.43 64.43 0 0 1 15.34-1.89c2.44-.01 2.45-3.75.04-3.74z" fill="#18c4ff"/><circle cx="299.2" cy="587.8" r="23.72"/><path d="m299.2 566a21.85 21.85 0 1 1 -21.44 17.56 22.05 22.05 0 0 1 21.44-17.56c2.4 0 2.41-3.76 0-3.75a25.6 25.6 0 1 0 25.1 20.65 25.91 25.91 0 0 0 -25.1-20.65c-2.41-.06-2.42 3.68 0 3.75z"/><path d="m684.59 304.59a67.37 67.37 0 0 1 -2.38 11.61 32.23 32.23 0 0 1 -2.1 5.46c-.86 1.66-2.19 3.19-1.78 5.19a6.1 6.1 0 0 0 3.7 4c1 .41 1.84.38 1.84 1.6s-.1 2.68 0 4a31.29 31.29 0 0 0 1.23 7.05c.64 2.12 1.43 4.44 3 6 4 3.91 10 1.84 14.91 2.41 1.38.17 1.37-2 0-2.16-4.12-.49-9.78 1.45-13.23-1.67-1.65-1.49-2.32-4-2.86-6.08a29.19 29.19 0 0 1 -1-7c0-1.72.61-4.15-1-5.37s-3.84-1-4.5-3.16c-.3-1 .32-1.86.8-2.68a19.91 19.91 0 0 0 1.14-2.2 38.16 38.16 0 0 0 1.8-5 46.09 46.09 0 0 0 2-12.17c0-1.08-1.52-1-1.64 0z"/><path d="m692.05 317.49s0 0 .05.05l-.18-.69a.73.73 0 0 0 .19.72l.06.07-.12-.15a1 1 0 0 1 .09.15l-.08-.19a2.1 2.1 0 0 1 .06.24v-.22.16-.22a.88.88 0 0 1 0 .15l.09-.2a.6.6 0 0 1 -.09.15l.14-.18-.13.13.18-.14a.38.38 0 0 1 -.15.09l.22-.09h-.15.24l.79.45a1.67 1.67 0 0 0 -.12-.23 3.37 3.37 0 0 0 -.29-.37l-.18-.14a.72.72 0 0 0 -.34-.11.49.49 0 0 0 -.24 0 .65.65 0 0 0 -.33.11 1 1 0 0 0 -.32.32.65.65 0 0 0 -.11.33.73.73 0 0 0 0 .36l.05.12a3.05 3.05 0 0 0 .13.32c0 .07.1.14.15.21l.15.18a.61.61 0 0 0 .29.19.48.48 0 0 0 .23.07.73.73 0 0 0 .36 0 2 2 0 0 0 .31-.13 1.59 1.59 0 0 0 .32-.26 1.91 1.91 0 0 0 .24-.34 1.72 1.72 0 0 0 .11-.29 1.81 1.81 0 0 0 0-.31 1.49 1.49 0 0 0 0-.42 1 1 0 0 0 -.15-.37 1.41 1.41 0 0 0 -.57-.54l-.17-.07a.61.61 0 0 0 -.3 0 .41.41 0 0 0 -.19.05.46.46 0 0 0 -.23.16l.69-.18h-.25-.19l-.16.07a.65.65 0 0 0 -.28.33.59.59 0 0 0 0 .35.7.7 0 0 0 .18.39z"/><path d="m690 311.14a.83.83 0 0 0 .59.78 1.93 1.93 0 0 0 1.14 0l.57-.1a1.91 1.91 0 0 1 .33-.06c-.25 0 0 0 .1 0a7.35 7.35 0 0 1 1.15 0 2.66 2.66 0 0 1 .28 0h.08c.27.05.54.11.82.14a1.11 1.11 0 0 0 1.11-1 1.13 1.13 0 0 0 -.81-1.23 4.64 4.64 0 0 0 -1.44-.13 8 8 0 0 0 -1.38.16 5.82 5.82 0 0 0 -1.28.42l-.29.14h-.05.05c0 .06-.36 0-.06 0s.15 0-.1 0a1 1 0 0 0 -.33.06l.74.3a.65.65 0 0 0 -1.19.5z"/><path d="m690.91 333.64c.22-.08.45-.13.68-.2a5.62 5.62 0 0 1 .71-.16h-.23a2 2 0 0 1 .34 0 2.47 2.47 0 0 0 .54-.11.85.85 0 0 0 .62-.81 1.06 1.06 0 0 0 -.12-.43.82.82 0 0 0 -.5-.39 3.78 3.78 0 0 0 -.47-.06 2 2 0 0 0 -.47.09 3.11 3.11 0 0 0 -.54.18 3.07 3.07 0 0 0 -.66.31c-.19.15-.38.3-.55.46a.68.68 0 0 0 -.1.81.76.76 0 0 0 .24.23.65.65 0 0 0 .51.07z"/><path d="m709.73 317.33a5.18 5.18 0 0 1 4.71-3.2 4.8 4.8 0 0 1 4.47 3.22 6.36 6.36 0 0 1 -1.1 6 5.82 5.82 0 0 1 -2.29 1.79 5.39 5.39 0 0 1 -2.84.23 1 1 0 0 0 -.52 1.9c1.94 1.06 4.46.08 6.05-1.17a9 9 0 0 0 3.22-6 7.42 7.42 0 0 0 -2.09-6.12 6.81 6.81 0 0 0 -6.05-1.76 6.4 6.4 0 0 0 -4.79 4.52c-.2.71.91 1.23 1.23.52z"/><path d="m714.91 318.19a2 2 0 0 0 -.69.32 3.87 3.87 0 0 0 -.59.48 3.94 3.94 0 0 0 -.49.59 3.13 3.13 0 0 0 -.37.7.87.87 0 0 0 .08.65.83.83 0 0 0 .5.38.86.86 0 0 0 .65-.08l.17-.13a.91.91 0 0 0 .21-.37l-.08.2a3.84 3.84 0 0 1 .46-.81l-.13.17a3.66 3.66 0 0 1 .59-.59l-.16.12.21-.15a2.6 2.6 0 0 0 .32-.26l.11-.14a.5.5 0 0 0 .08-.27.6.6 0 0 0 -.08-.45.73.73 0 0 0 -.8-.33z"/><path d="m709.62 316.26c-2.43-3.3-2-8.19-4.73-11.22-.77-.85-1.74-1.49-2.45-2.39-1.54-2-1.49-4.69-1.38-7.19a45.81 45.81 0 0 1 -10.27 6.12 8.51 8.51 0 0 1 -3.58.88 3.22 3.22 0 0 1 -2.93-1.91 2 2 0 0 1 1.7-2.67 4.57 4.57 0 0 1 -3 1.8c-2.36.62-5.22 1-6.91-.75a4.29 4.29 0 0 1 -.53-4.84 6.24 6.24 0 0 1 4-3c-.77.21-1.94.18-2-.63a1.31 1.31 0 0 1 .54-1c3.13-2.89 7.68-3.62 11.94-3.68a51.08 51.08 0 0 1 8.65.61 9.27 9.27 0 0 0 2.4.19 39.36 39.36 0 0 1 24.4 6c4.65 3 8.41 8 8.45 13.55a25.11 25.11 0 0 1 -.95 6q-2.13 8.63-4.62 17.15c-.33 1.12-.77 2.37-1.83 2.85a3.74 3.74 0 0 1 -2.43 0c-3.16-.74-5.72-3.52-8.27-5.53 3-1.44 5-2.87 5.63-6.16a8 8 0 0 0 -4-8.46c-3-1.47-5.81-.69-7.07 2.4"/><path d="m710.19 315.93c-1.93-3.08-1.8-6.92-3.57-10.06-1-1.72-2.8-2.68-3.78-4.35s-.91-4.06-.82-6.06c0-.92-1-1.14-1.63-.67a47.89 47.89 0 0 1 -8.24 5.17c-1.47.72-3.24 1.71-4.94 1.59a2.61 2.61 0 0 1 -1.77-.8c-.46-.59-.45-1.86.54-1.94l-.81-1.4c-.73 1.14-2.48 1.36-3.71 1.59a6 6 0 0 1 -4.14-.31 3.08 3.08 0 0 1 -1.13-3.69 5.14 5.14 0 0 1 3.62-2.95 1 1 0 0 0 -.53-1.95c-.2 0-.69.18-.87 0 .38.3.83-.34 1.07-.52a11.09 11.09 0 0 1 2-1.18 16.46 16.46 0 0 1 4.56-1.32 39.31 39.31 0 0 1 10.28 0 29.31 29.31 0 0 0 5.19.48 37.54 37.54 0 0 1 14.39 1.66c5.92 1.84 12.08 5.06 15.21 10.65a13.36 13.36 0 0 1 1.43 9.17c-.68 3.66-1.75 7.28-2.71 10.88q-.82 3.09-1.71 6.18c-.3 1.06-.58 2.13-.92 3.18-.23.7-.51 1.65-1.32 1.86-1.67.45-3.83-1-5.09-1.91-1.46-1-2.77-2.29-4.18-3.4l-.22 1.67c2.27-1.12 4.47-2.51 5.52-4.91a9.35 9.35 0 0 0 -.22-7.76c-2.35-4.87-9.63-6.71-12.15-1-.54 1.25 1.29 2.33 1.84 1.08 2-4.63 7.47-2.16 8.79 1.69a7.11 7.11 0 0 1 -.39 5.66c-1 1.7-2.77 2.61-4.46 3.42a1.06 1.06 0 0 0 -.21 1.66c2.74 2.22 5.34 5.12 8.93 5.9 1.74.38 3.45.12 4.49-1.46s1.38-3.75 1.89-5.55q2-6.88 3.67-13.83c1-3.89 1.47-7.69-.08-11.51-2.82-7-9.74-11.05-16.56-13.36a41.13 41.13 0 0 0 -11.48-2.12c-1.93-.08-3.9.26-5.82.14-2.32-.16-4.61-.65-7-.75-4.22-.2-8.69 0-12.57 1.78-1.37.64-4 2-4 3.71s1.93 2 3.26 1.73l-.53-1.95a7.21 7.21 0 0 0 -4.9 4 5.19 5.19 0 0 0 1.19 5.73c1.56 1.39 3.75 1.47 5.71 1.17s4.35-.87 5.5-2.69a.93.93 0 0 0 -.8-1.4 3 3 0 0 0 -2.66 3.55c.44 2 2.67 3 4.58 2.84 2.48-.21 5-1.66 7.15-2.81a46.16 46.16 0 0 0 6.69-4.39l-1.63-.68a14.38 14.38 0 0 0 .63 6.12c.84 2.09 2.77 3 4 4.76 2.23 3.13 2 7.31 4.41 10.38.46.59 1.42-.17 1-.79z"/><path d="m703.38 351.64c-.15.29-.47-.09-.26.32a2.94 2.94 0 0 0 .31.41c.2.26.4.52.59.79q.6.79 1.17 1.59c.8 1.1 1.56 2.23 2.28 3.38s1.38 2.26 2 3.41 1.21 2.45 1.89 3.62c.54.94 2.24.31 1.81-.77a33.15 33.15 0 0 0 -2.41-4.61c-.86-1.45-1.77-2.88-2.74-4.26s-2-2.73-3.07-4c-.45-.53-1-1.28-1.73-1.31a1 1 0 0 0 -1 1.29.66.66 0 0 0 1.19.16z"/><path d="m723.8 330.39c1.34 2.15 2.73 4.26 4.16 6.35l2.16 3.13a23.9 23.9 0 0 0 2.28 3 .8.8 0 0 0 1.25-1 24.54 24.54 0 0 0 -2.16-3.13c-.72-1-1.43-2-2.15-3l-4.34-6.06c-.52-.72-1.7-.07-1.21.71z"/><path d="m735.1 339.8c-6.4 9.65-14 19.22-23.75 25.4-.57-1-.83-1.93-1.41-3-1 .68-1.39 1.58-2.36 2.25-1.16.8-2.4 1.72-2.73 3.09a5.82 5.82 0 0 0 .3 2.94l1.38 4.88c.18.64.43 1.36 1 1.61 1.11.46 2-1 2.4-2.11l2-6.28 3.93 7.23c.88 1.64 2.05 3.47 3.9 3.66 1.7.18 3.16-1.13 4.37-2.34 6.78-6.81 13.61-13.69 18.9-21.71 2.17-3.29 4.11-6.86 4.58-10.77a2.73 2.73 0 0 0 -.2-1.72 2.92 2.92 0 0 0 -1.08-.95l-5.92-3.72a11.83 11.83 0 0 0 -4.1-1.88 6.11 6.11 0 0 0 -5 2.1c-.14.21 0-.25 0 0s.4.55.49.73c.32.63 1.68 2.45 2 3.08" fill="#18c4ff"/><path d="m750 350.82c16.18-1 31.52 6.75 43.6 17 13 11 23.08 24.87 34.25 37.62 5.36 6.13 11.49 11.82 15.65 18.9a36.44 36.44 0 0 1 4.11 24.37c-1.36 8.44-5 16.29-9.44 23.53a174.47 174.47 0 0 1 -15.29 20.89c-11.41 13.63-24.16 26.1-36.6 38.77l-4.79 4.87c-1 1 .56 2.59 1.57 1.57 12.92-13 26.19-25.85 38.27-39.7a205.5 205.5 0 0 0 16.31-21.09c4.77-7.16 9-14.86 11.25-23.22s2.49-17.31-.51-25.4c-2.89-7.8-8.58-14-14.13-20-11.86-12.85-22.08-27.32-35-39.14-11.87-10.85-26.81-19.76-43.25-20.48a47.6 47.6 0 0 0 -6 .12c-.92.08-.94 1.52 0 1.47z"/><path d="m748.67 376.42c-.11 11.23 9.77 19.23 17.25 26.2q14.9 13.89 29.89 27.65l7.32 6.71c1.15 1.06 2.32 2 1.6 3.66s-1.58 3-2.36 4.45q-4.65 8.71-9.37 17.38t-9.77 17.44c-3.12 5.42-6.21 10.91-9.8 16a52.06 52.06 0 0 1 -6.48 7.73c-2.24 2.16-4.79 4-6.7 6.47-2.87 3.72-3.89 10.36 1 13a1.21 1.21 0 0 0 1.22-2.08 5.2 5.2 0 0 1 -2.1-5.26c.32-2.52 2-4.52 3.78-6.21 2-1.93 4.2-3.65 6.11-5.68a60.54 60.54 0 0 0 5.49-6.87c3.49-5 6.5-10.37 9.55-15.66q4.86-8.44 9.52-17t9.25-17.17l2.18-4.09c.7-1.32 1.48-2.75 1.19-4.3a5.53 5.53 0 0 0 -1.63-2.74c-1.22-1.23-2.57-2.36-3.85-3.53q-14.67-13.41-29.44-26.7c-5-4.51-10.28-8.82-14.88-13.75-4-4.35-7.54-9.54-7.62-15.68a.67.67 0 0 0 -1.34 0z"/><path d="m761.66 521.54c-5.83 3.57-12.31 7.83-14.31 14.79a1 1 0 0 0 1.86.51c2.19-6.33 7.88-10.45 13.09-14.21.65-.46.07-1.52-.64-1.09z"/><path d="m756.22 540.81a54.14 54.14 0 0 1 .11 10.65 64.83 64.83 0 0 1 -2.18 10.59 1 1 0 0 0 1.84.51 40.41 40.41 0 0 0 2.11-10.9 46.89 46.89 0 0 0 -.46-11c-.13-.8-1.5-.62-1.42.19z"/><path d="m764.63 563.29a16.28 16.28 0 0 0 2.65-9.27c0-1-1.68-1-1.64 0a15.84 15.84 0 0 1 -2.19 8.58c-.45.76.7 1.42 1.18.69z"/><path d="m774.22 560.69a45.32 45.32 0 0 0 .71-9.23c0-1.09-1.75-1.09-1.7 0a48.6 48.6 0 0 1 -.36 8.86.73.73 0 0 0 .49.86.7.7 0 0 0 .86-.49z"/><path d="m781.11 558.63a28.8 28.8 0 0 0 2-13c-.18-2.28-.73-4.51-.87-6.78a11.78 11.78 0 0 1 .31-3.74 15.47 15.47 0 0 0 .76-3c.12-2-1.24-3.46-2.48-4.83a27.34 27.34 0 0 0 -4.31-3.8 25.45 25.45 0 0 0 -10.82-4.58c-1.35-.18-2 1.8-.58 2.11a28 28 0 0 1 9.88 3.99 24.71 24.71 0 0 1 4.27 3.63 10.79 10.79 0 0 1 1.8 2.25c.53 1 .08 2.13-.23 3.16-1.23 4 0 7.9.45 11.91a27.5 27.5 0 0 1 -1.47 12.36c-.31.85 1 1.18 1.33.37z"/><rect height="11.29" rx="3.51" transform="matrix(.52279616 -.85245773 .85245773 .52279616 -122.21 829.1)" width="38.96" x="659.92" y="518.06"/><path d="m676.12 519.84h27.1v20.33h-27.1z" transform="matrix(.52279616 -.85245773 .85245773 .52279616 -122.68 840.86)"/><path d="m444.27 375-4.07 6.63a3.08 3.08 0 0 0 .43 3.77l15.91 16.11a3.06 3.06 0 0 0 2.11.91l9.57.26a3.06 3.06 0 0 0 2.7-1.47l4.73-7.7a3.06 3.06 0 0 0 .08-3.07l-4.57-8.44a3 3 0 0 0 -1.76-1.47l-21.58-6.87a3.07 3.07 0 0 0 -3.55 1.34z"/><path d="m808 573.59-27-16.59a16.72 16.72 0 0 1 -9.33 9.54 14 14 0 0 1 -14.71-2.94 4.6 4.6 0 0 1 -1.09-1.54 5.61 5.61 0 0 1 -.14-2.58q.79-8.12 1.6-16.23l-.16-.87-40.75-25a18.31 18.31 0 0 0 -25.19 6l-6.69 10.91a18.32 18.32 0 0 0 6 25.2l91.65 56.2a18.32 18.32 0 0 0 25.19-6l6.7-10.92a18.32 18.32 0 0 0 -6.08-25.18z"/><g fill="#18c4ff"><path d="m697.72 549.79 9.1 5.58 21.86 13.41 26.46 16.22 23 14.09 7.54 4.62c1.18.72 2.34 1.56 3.57 2.19l.16.09c1 .64 2-1 .94-1.61l-9.1-5.58-21.86-13.41-26.49-16.22-23-14.09-7.54-4.62c-1.17-.72-2.34-1.56-3.57-2.19l-.16-.1c-1-.63-2 1-.94 1.62z"/><path d="m703.66 539.68 9.1 5.58 21.85 13.4 26.46 16.23 22.93 14.11 7.54 4.62c1.17.73 2.34 1.57 3.57 2.2l.16.09c1 .63 2-1 .94-1.61l-9.1-5.58-21.86-13.41-26.46-16.22-23-14.09-7.54-4.62c-1.18-.72-2.34-1.56-3.57-2.19l-.16-.1c-1-.63-2 1-.94 1.62z"/><path d="m773.65 568.85 24.16 14.81 3.43 2.11c1 .63 2-1 1-1.62l-24.24-14.81-3.44-2.11c-1-.63-2 1-.94 1.62z"/><path d="m709.59 529.56 15.27 9.37 24.14 14.79 5.62 3.44a.93.93 0 0 0 .94-1.61l-15.27-9.37-24.12-14.79-5.63-3.39c-1-.63-2 1-.95 1.61z"/></g><path d="m698.37 385.26a72.06 72.06 0 0 0 3 35.05c3.92 11.22 11.31 21.72 11.43 34a24.39 24.39 0 0 1 -1.35 8.34c-.9 2.58-2.17 5.14-2.2 7.93a7.67 7.67 0 0 0 .72 3.34c.55 1.19 1.69 2.25 1.83 3.6s-.53 2.66-.54 4a7.08 7.08 0 0 0 .76 3.13c2.2 4.4 7.77 6.05 12.22 6.81a65.66 65.66 0 0 0 18 .12 196.63 196.63 0 0 0 40.92-8.7c1.49-.49.86-2.85-.65-2.37a204.45 204.45 0 0 1 -35.06 7.93 95.9 95.9 0 0 1 -17.83 1.1c-4.75-.26-10.81-.95-14.31-4.57a5.39 5.39 0 0 1 -1.45-2.49c-.3-1.3.19-2.54.36-3.82a5.58 5.58 0 0 0 -.5-3.29c-.59-1.22-1.56-2.22-1.88-3.56-.59-2.59.76-5.35 1.61-7.73a26.93 26.93 0 0 0 1.58-7.79c.56-11.54-5.59-21.77-10.06-32a70.88 70.88 0 0 1 -5.33-38.67c.13-.86-1.17-1.24-1.32-.37z"/><path d="m801 434.62c.27 1.85.45 3.71.58 5.58.06.93.12 1.86.15 2.79a26.45 26.45 0 0 0 .15 2.81.84.84 0 0 0 .94.61.87.87 0 0 0 .75-.84 16.24 16.24 0 0 0 -.08-2.79c-.07-1-.16-1.94-.29-2.9q-.37-2.82-1-5.6c-.17-.81-1.34-.45-1.22.34z"/><g fill="#fff"><path d="m682.39 626.47 4.16-3.14a.71.71 0 1 0 -.86-1.12l-4.09 3.24a.65.65 0 0 0 .79 1z"/><path d="m588.39 770.66 6.14.23a31 31 0 0 1 5.36.35 4 4 0 0 1 3.29 2.78 34.08 34.08 0 0 0 1.17 4.09c1.31 2.8 4.3 3.12 7.06 3.09 1.84 0 3.67 0 5.51.16 1 .08 2 .2 3 .35a17.17 17.17 0 0 0 3 .42c.76 0 1.19-1.16.42-1.52a18 18 0 0 0 -5.51-1.06 50.09 50.09 0 0 0 -5.61-.31c-1.57 0-3.48.25-4.9-.57s-1.64-2.52-2-4c-.75-2.93-2.37-4.76-5.45-5.21a36.22 36.22 0 0 0 -5.1-.16h-6.39a.66.66 0 0 0 0 1.32z"/><path d="m934.68 529.47c6.65 2.08 11.43 7.43 15.66 12.68a12.44 12.44 0 0 1 1.59 2c.47.95-.15 1.62-.39 2.55a6.11 6.11 0 0 0 1 4.58c.57 1 1.63 3 3 2.8a1.3 1.3 0 0 0 .51-2.38c-.9-.68-2 .79-1.19 1.55l.12.11-.29-.7.21-.43.77-.1c-.55-.13-1.24-1.55-1.52-2a4.53 4.53 0 0 1 -.77-2.35c0-1.35 1-2.39.54-3.79a12 12 0 0 0 -2.42-3.23c-.92-1.09-1.85-2.16-2.81-3.21-3.78-4.1-8.16-7.79-13.61-9.37a.67.67 0 0 0 -.36 1.29z"/><path d="m851 583.19c.51 5.36 1.48 10.72 2.25 16 .14 1 1.68.58 1.52-.42-.81-5.26-1.44-10.59-2.51-15.8-.14-.71-1.33-.56-1.26.17z"/><path d="m856.59 585.63a22.87 22.87 0 0 1 1.47 6.42.77.77 0 0 0 .75.75.75.75 0 0 0 .75-.75 24.42 24.42 0 0 0 -1.68-6.78.67.67 0 1 0 -1.29.36z"/></g><path d="m678.58 536.89c3.85-6.06 7.43-12.29 10.8-18.62.42-.79-.79-1.49-1.19-.7-3.3 6.38-6.91 12.59-10.76 18.65-.46.72.69 1.39 1.15.67z" fill="#18c4ff"/><path d="m654.66 506.69a10.65 10.65 0 0 0 10.44.9 9.59 9.59 0 0 0 2.16-1.33c1-.81 1.74-1.74 3.12-1.87a32.74 32.74 0 0 0 6.73-1.05c4.38-1.36 8.34-3.74 12.23-6.12s8-4.91 11.86-7.63a67 67 0 0 0 11.7-10.28c1-1.08-.63-2.67-1.58-1.58-5.89 6.69-13.35 11.59-20.87 16.24a82.35 82.35 0 0 1 -11.5 6.4 25.34 25.34 0 0 1 -6.44 1.77c-2 .25-3.72.14-5.34 1.54s-3.22 2.67-5.54 3a9.52 9.52 0 0 1 -6.29-1.17c-.76-.45-1.37.67-.68 1.16z"/><path d="m651.19 508.91c-4.57 1-9.06 2.16-13.7 2.86-4.26.64-9 1.46-13.32.56s-6.53-4.09-8.6-7.6q-1.79-3-3.45-6.15c-1-2-2.11-4-1.34-6.23 1.58-4.69 5.23-8.43 8.39-12.07a.94.94 0 0 0 -1.33-1.33 31.33 31.33 0 0 0 -4.78 5.31 40.15 40.15 0 0 0 -3.82 6 7.76 7.76 0 0 0 -.52 6.45 46.43 46.43 0 0 0 3.47 6.72c2.11 3.75 4.33 8.1 8.38 10.08 4.21 2.07 9.19 1.39 13.67.8a70.75 70.75 0 0 0 17.29-4.17.64.64 0 0 0 -.34-1.24z"/><path d="m624.69 483.49a14.07 14.07 0 0 0 -5 5.81.85.85 0 1 0 1.46.86 13.73 13.73 0 0 1 .85-1.61 16.44 16.44 0 0 1 1-1.41 18.84 18.84 0 0 1 2.53-2.6c.57-.5-.17-1.46-.82-1.05z"/><path d="m625.08 495.15a8.41 8.41 0 0 1 4.77-5.4c.77-.34.22-1.68-.58-1.37a9.41 9.41 0 0 0 -5.52 6.4.69.69 0 0 0 1.33.37z"/><path d="m630.14 500.35a11.4 11.4 0 0 1 4.19-6.2.91.91 0 0 0 .31-1.21.89.89 0 0 0 -1.21-.32 11.8 11.8 0 0 0 -3 3.3 12 12 0 0 0 -1.58 4.07.7.7 0 0 0 .48.85.69.69 0 0 0 .85-.49z"/><path d="m616.69 481.78-145.42-89.18-3.09 5 144.49 88.6a29.37 29.37 0 0 1 4.02-4.42z"/><path d="m645 499.16c-2.61.55-4.66 1.55-5 3.28a2.93 2.93 0 0 0 -.06.58l39.45 24.19 3.09-5z"/><path d="m630.87 484.84c-.83-.11-.89-1.26-.53-1.8a4.23 4.23 0 0 1 2.43-1.38 18.09 18.09 0 0 1 6.66-.71 5.55 5.55 0 0 1 4.57 2.89 9.88 9.88 0 0 1 .78 2.67 7.54 7.54 0 0 1 .24 2.79 1.07 1.07 0 0 0 1.94.81c.85-1.18.36-2.91.12-4.23a10.37 10.37 0 0 0 -1.42-3.89c-1.7-2.54-4.69-3.4-7.61-3.23a26 26 0 0 0 -4.88.8 8.2 8.2 0 0 0 -3.58 1.7 3.13 3.13 0 0 0 -1 3.18 2.24 2.24 0 0 0 2.26 1.7.65.65 0 0 0 0-1.3z"/><g fill="#18c4ff"><path d="m713.73 387.69s0 0 0-.05l.08.19a.56.56 0 0 1 0-.12v.21-.14.21a.75.75 0 0 1 0-.16l-.08.19a1.09 1.09 0 0 1 .08-.15l-.12.17a.81.81 0 0 1 .16-.16l-.17.13a1.09 1.09 0 0 1 .23-.14l-.2.09a.86.86 0 0 1 .23-.06h-.23.21-.24.15l-.21-.09.22.13-.18-.14a1 1 0 0 1 .17.18l-.14-.19a1.51 1.51 0 0 1 .2.35l-.09-.23a2.11 2.11 0 0 1 .12.43v-.25a2.17 2.17 0 0 1 0 .51v-.26a1.89 1.89 0 0 1 -.1.41l.1-.23-.12.21.15-.2a.8.8 0 0 1 -.13.13l.2-.15a1 1 0 0 1 -.17.1l.24-.1a.83.83 0 0 1 -.21.06h.26-.28.26l-.25-.07.24.1a1 1 0 0 1 -.22-.13l.2.16a1.21 1.21 0 0 1 -.16-.16l.16.21a1.35 1.35 0 0 1 -.15-.26l.1.24a1.58 1.58 0 0 1 -.09-.31v.27a1.34 1.34 0 0 1 0-.4v.27a2.17 2.17 0 0 1 .11-.42l-.1.25v-.09a1.19 1.19 0 0 0 .11-.81 1.06 1.06 0 0 0 -1.29-.73 1 1 0 0 0 -.62.48 2.66 2.66 0 0 0 -.23.67 2.42 2.42 0 0 0 0 .71 3.25 3.25 0 0 0 .07.45 3.2 3.2 0 0 0 .17.43 1.18 1.18 0 0 0 .11.19 2.45 2.45 0 0 0 .29.35 2.06 2.06 0 0 0 1.34.55 1.79 1.79 0 0 0 1.34-.51 2.21 2.21 0 0 0 .56-1.46 2.58 2.58 0 0 0 -.15-1 2.41 2.41 0 0 0 -.27-.56 2.21 2.21 0 0 0 -.58-.56 1.66 1.66 0 0 0 -1.32-.22 1.76 1.76 0 0 0 -1.09.81 1.38 1.38 0 0 0 0 1.45.88.88 0 0 0 .47.36.78.78 0 0 0 .6-.08.79.79 0 0 0 .28-1.07z"/><path d="m717.54 405.13a.08.08 0 0 1 0 0l.07.18v-.12.21a.33.33 0 0 1 0-.14v.21a.49.49 0 0 1 .05-.16l-.09.2a1 1 0 0 1 .09-.15l-.13.16a1.29 1.29 0 0 1 .17-.16l-.17.13a1 1 0 0 1 .23-.13l-.2.08a.86.86 0 0 1 .23-.06h-.24.21-.23.15l-.21-.09.22.13-.19-.14a1.53 1.53 0 0 1 .18.18l-.14-.19a1.75 1.75 0 0 1 .2.35l-.09-.23a2.26 2.26 0 0 1 .11.43v-.25a2.18 2.18 0 0 1 0 .51v-.26a1.89 1.89 0 0 1 -.1.41l.09-.23a1.13 1.13 0 0 1 -.12.21l.16-.2a.8.8 0 0 1 -.13.13l.2-.15a1 1 0 0 1 -.17.1l.24-.1a.79.79 0 0 1 -.22.06h.27a.66.66 0 0 1 -.28 0h.26a1 1 0 0 1 -.25-.07l.24.1a.94.94 0 0 1 -.22-.12l.2.15a.61.61 0 0 1 -.16-.16l.15.21a1.35 1.35 0 0 1 -.15-.26l.11.25a1.28 1.28 0 0 1 -.09-.32v.27a2.67 2.67 0 0 1 0-.4v.27a2.17 2.17 0 0 1 .11-.42l-.1.25a.36.36 0 0 1 0-.09 1.12 1.12 0 0 0 .1-.8 1 1 0 0 0 -1.28-.73.94.94 0 0 0 -.62.48 2.73 2.73 0 0 0 -.23.66 2.49 2.49 0 0 0 0 .72 3.5 3.5 0 0 0 .07.45 3.07 3.07 0 0 0 .17.42 1.18 1.18 0 0 0 .11.19 1.93 1.93 0 0 0 .29.35 2.08 2.08 0 0 0 1.34.56 1.82 1.82 0 0 0 1.34-.52 2.21 2.21 0 0 0 .56-1.45 2.6 2.6 0 0 0 -.15-1 2.89 2.89 0 0 0 -.27-.56 2.21 2.21 0 0 0 -.58-.56 1.67 1.67 0 0 0 -1.32-.22 1.77 1.77 0 0 0 -1.09.82 1.36 1.36 0 0 0 0 1.44.88.88 0 0 0 .47.36.79.79 0 0 0 .6-.08.81.81 0 0 0 .28-1.07z"/><path d="m721.35 422.58v-.05l.08.19v-.12.21a.38.38 0 0 1 0-.15v.22a1 1 0 0 1 0-.17l-.08.2.09-.15-.13.17a.69.69 0 0 1 .17-.17l-.17.13a.86.86 0 0 1 .23-.13l-.21.08a2 2 0 0 1 .23-.06h-.23.21-.23l.15.05-.22-.09a.76.76 0 0 1 .23.13l-.19-.15a1.53 1.53 0 0 1 .18.18l-.15-.18a1.2 1.2 0 0 1 .21.34l-.1-.22a1.62 1.62 0 0 1 .12.43v-.26a2.17 2.17 0 0 1 0 .51v-.25a1.38 1.38 0 0 1 -.1.4l.1-.23a.72.72 0 0 1 -.12.21l.15-.2a.81.81 0 0 1 -.12.14l.19-.16-.16.1.23-.1a.65.65 0 0 1 -.21.06h.27a1.41 1.41 0 0 1 -.29 0h.27a.72.72 0 0 1 -.25-.07l.24.1a1 1 0 0 1 -.23-.12l.21.15a.8.8 0 0 1 -.17-.15l.16.2a1.28 1.28 0 0 1 -.15-.25l.1.24a1.16 1.16 0 0 1 -.08-.32v.27a2.67 2.67 0 0 1 0-.4v.28a1.6 1.6 0 0 1 .11-.43l-.11.25.05-.09a1.12 1.12 0 0 0 .1-.8 1.08 1.08 0 0 0 -.48-.63 1.06 1.06 0 0 0 -.8-.1 1 1 0 0 0 -.62.48 2.66 2.66 0 0 0 -.23.67 2.42 2.42 0 0 0 0 .71 2.34 2.34 0 0 0 .07.45 2.26 2.26 0 0 0 .17.43.87.87 0 0 0 .11.18 2.33 2.33 0 0 0 .28.36 2.12 2.12 0 0 0 1.35.55 1.79 1.79 0 0 0 1.33-.52 2.22 2.22 0 0 0 .57-1.45 2.66 2.66 0 0 0 -.15-1 2.85 2.85 0 0 0 -.28-.55 2.1 2.1 0 0 0 -.58-.57 1.66 1.66 0 0 0 -1.32-.22 1.82 1.82 0 0 0 -1.08.82 1.36 1.36 0 0 0 0 1.44.78.78 0 0 0 .47.36.78.78 0 0 0 .88-1.14z"/><path d="m725.15 440s0 0 0 0l.08.19a.27.27 0 0 1 0-.12v.21-.14.21a.75.75 0 0 1 .05-.16l-.08.19a.6.6 0 0 1 .09-.15l-.13.17a1.29 1.29 0 0 1 .16-.17l-.17.13.23-.13-.2.09a1 1 0 0 1 .23-.06h-.23.21-.24.16l-.22-.09a1 1 0 0 1 .22.13l-.18-.14a1.53 1.53 0 0 1 .18.18l-.15-.19a2.39 2.39 0 0 1 .21.34l-.1-.22a1.62 1.62 0 0 1 .12.43v-.25a1.74 1.74 0 0 1 0 .51v-.26a1.8 1.8 0 0 1 -.1.4l.1-.23a.72.72 0 0 1 -.12.21l.15-.19a.8.8 0 0 1 -.13.13l.2-.16a.54.54 0 0 1 -.16.1l.23-.1a.83.83 0 0 1 -.21.06h.26a1.31 1.31 0 0 1 -.28 0h.27a1 1 0 0 1 -.25-.06l.24.1a1.71 1.71 0 0 1 -.23-.13l.2.16a1.21 1.21 0 0 1 -.16-.16l.16.2a1.28 1.28 0 0 1 -.15-.25l.1.24a1.68 1.68 0 0 1 -.09-.32v.28a1.41 1.41 0 0 1 0-.41v.28a1.45 1.45 0 0 1 .12-.42l-.11.24a.36.36 0 0 0 0-.09 1 1 0 0 0 -.37-1.42 1 1 0 0 0 -.8-.11 1.05 1.05 0 0 0 -.63.48 2.63 2.63 0 0 0 -.22.67 2.43 2.43 0 0 0 0 .71 3.54 3.54 0 0 0 .08.45 2.26 2.26 0 0 0 .17.43 1 1 0 0 0 .1.18 2.08 2.08 0 0 0 .29.36 2.12 2.12 0 0 0 1.35.55 1.82 1.82 0 0 0 1.33-.51 2.2 2.2 0 0 0 .56-1.46 2.27 2.27 0 0 0 -.15-1 2.09 2.09 0 0 0 -.85-1.13 1.7 1.7 0 0 0 -1.32-.22 1.84 1.84 0 0 0 -1.09.82 1.4 1.4 0 0 0 0 1.45.81.81 0 0 0 .46.35.78.78 0 0 0 .6-.07.8.8 0 0 0 .28-1.07z"/><path d="m729 457.46s0 0 0 0l.08.19a.56.56 0 0 1 0-.12v.21-.14.21a.75.75 0 0 1 0-.16l-.08.19a.6.6 0 0 1 .09-.15l-.13.17a.81.81 0 0 1 .16-.16l-.17.13a1.09 1.09 0 0 1 .23-.14l-.2.09a.86.86 0 0 1 .23-.06h-.23.21-.24.15l-.21-.09.22.13-.18-.14a1 1 0 0 1 .17.18l-.14-.19a1.51 1.51 0 0 1 .2.35l-.09-.23a2.11 2.11 0 0 1 .12.43v-.25a2.18 2.18 0 0 1 0 .51v-.26a1.89 1.89 0 0 1 -.1.41l.1-.24-.12.22.15-.2a.8.8 0 0 1 -.13.13l.2-.15a1 1 0 0 1 -.17.1l.24-.1a1.66 1.66 0 0 1 -.21.06h.26a1.31 1.31 0 0 1 -.28 0h.26l-.25-.07.24.1a1 1 0 0 1 -.22-.13l.2.16-.16-.16.16.21a1.35 1.35 0 0 1 -.15-.26l.1.24a1.58 1.58 0 0 1 -.09-.31v.27a1.34 1.34 0 0 1 0-.4v.27a2.17 2.17 0 0 1 .11-.42l-.1.25v-.09a1.2 1.2 0 0 0 .11-.81 1.1 1.1 0 0 0 -.48-.62 1.09 1.09 0 0 0 -.81-.11 1 1 0 0 0 -.62.48 3.12 3.12 0 0 0 -.23.67 2.83 2.83 0 0 0 0 .71 3.25 3.25 0 0 0 .07.45 3.2 3.2 0 0 0 .17.43 1.18 1.18 0 0 0 .11.19 2.45 2.45 0 0 0 .29.35 2.12 2.12 0 0 0 1.35.55 1.78 1.78 0 0 0 1.33-.51 2.21 2.21 0 0 0 .56-1.46 2.74 2.74 0 0 0 -.42-1.59 2.21 2.21 0 0 0 -.58-.56 1.71 1.71 0 0 0 -1.32-.23 1.81 1.81 0 0 0 -1.09.82 1.4 1.4 0 0 0 0 1.45.88.88 0 0 0 .47.36.83.83 0 0 0 .6-.08.79.79 0 0 0 .28-1.07z"/><path d="m732.77 474.9.08.18a.56.56 0 0 1 0-.12v.21a.33.33 0 0 1 0-.14v.21a.49.49 0 0 1 .05-.16l-.09.2a1 1 0 0 1 .09-.15l-.13.16a1.29 1.29 0 0 1 .17-.16l-.17.13a.76.76 0 0 1 .23-.13l-.2.08a.86.86 0 0 1 .23-.06h-.23.2-.23.15l-.21-.09.22.13-.19-.14a.77.77 0 0 1 .18.18l-.14-.19a1.51 1.51 0 0 1 .2.35l-.09-.23a2.26 2.26 0 0 1 .11.43v-.25a2.18 2.18 0 0 1 0 .51v-.26a1.89 1.89 0 0 1 -.1.41l.09-.23a1.13 1.13 0 0 1 -.12.21l.16-.2a.8.8 0 0 1 -.13.13l.2-.15a1 1 0 0 1 -.17.1l.24-.1a.83.83 0 0 1 -.21.06h.26a.66.66 0 0 1 -.28 0h.26l-.25-.07.24.1a.71.71 0 0 1 -.22-.13l.2.16a1.21 1.21 0 0 1 -.16-.16l.15.21a1.35 1.35 0 0 1 -.15-.26l.11.25a1.28 1.28 0 0 1 -.09-.32v.27a1.34 1.34 0 0 1 0-.4v.27a2.17 2.17 0 0 1 .11-.42l-.1.25a.36.36 0 0 1 0-.09 1.14 1.14 0 0 0 .1-.81 1 1 0 0 0 -1.28-.72.94.94 0 0 0 -.62.48 2.73 2.73 0 0 0 -.23.66 2.44 2.44 0 0 0 0 .71 3.65 3.65 0 0 0 .07.46 3.69 3.69 0 0 0 .17.42 1.18 1.18 0 0 0 .11.19 1.93 1.93 0 0 0 .29.35 2.1 2.1 0 0 0 1.34.56 1.86 1.86 0 0 0 1.34-.52 2.21 2.21 0 0 0 .56-1.45 2.6 2.6 0 0 0 -.15-1 2.41 2.41 0 0 0 -.27-.56 2.21 2.21 0 0 0 -.58-.56 1.67 1.67 0 0 0 -1.32-.22 1.79 1.79 0 0 0 -1.09.81 1.38 1.38 0 0 0 0 1.45.88.88 0 0 0 .47.36.79.79 0 0 0 .6-.08.81.81 0 0 0 .28-1.07z"/></g></svg>